<svg xmlns="http://www.w3.org/2000/svg" xmlns:xlink="http://www.w3.org/1999/xlink" width="1635.449" height="1635.449" viewBox="0 0 1635.449 1635.449">
  <defs>
    <radialGradient id="radial-gradient" cx="0.5" cy="0.5" r="0.48" gradientTransform="matrix(1, -0.005, 0.005, 1, -0.003, 0.003)" gradientUnits="objectBoundingBox">
      <stop offset="0" stop-color="#ccc9c9"/>
      <stop offset="1" stop-color="#535353"/>
    </radialGradient>
    <filter id="Subtraction_6" x="0" y="0" width="1635.449" height="1635.449" filterUnits="userSpaceOnUse">
      <feOffset dx="1" dy="25" input="SourceAlpha"/>
      <feGaussianBlur stdDeviation="16" result="blur"/>
      <feFlood flood-opacity="0.78"/>
      <feComposite operator="in" in2="blur"/>
      <feComposite in="SourceGraphic"/>
    </filter>
  </defs>
  <g transform="matrix(1, 0, 0, 1, 0, 0)" filter="url(#Subtraction_6)">
    <g id="Subtraction_6-2" data-name="Subtraction 6" transform="translate(2339.21 832.41) rotate(24)" fill="url(#radial-gradient)">
      <path d="M -1406.999755859375 1158.5 C -1426.6279296875 1158.5 -1446.428588867188 1157.500122070313 -1465.851318359375 1155.528198242188 C -1484.9833984375 1153.585571289063 -1504.208129882813 1150.651489257813 -1522.991333007813 1146.8076171875 C -1541.528564453125 1143.014282226563 -1560.0830078125 1138.243530273438 -1578.139526367188 1132.627807617188 C -1595.991455078125 1127.075317382813 -1613.779296875 1120.564697265625 -1631.00830078125 1113.27685546875 C -1665.113037109375 1098.851318359375 -1698.00244140625 1080.999633789063 -1728.7626953125 1060.217529296875 C -1759.231811523438 1039.634033203125 -1787.8896484375 1015.989501953125 -1813.9404296875 989.9400634765625 C -1839.985473632813 963.893798828125 -1863.630249023438 935.2359619140625 -1884.217529296875 904.7626953125 C -1905.003662109375 873.994873046875 -1922.855346679688 841.1056518554688 -1937.276733398438 807.008544921875 C -1944.564575195313 789.7791748046875 -1951.0751953125 771.991455078125 -1956.627807617188 754.1393432617188 C -1962.2431640625 736.0836181640625 -1967.01416015625 717.5291748046875 -1970.807861328125 698.991455078125 C -1974.652099609375 680.2017822265625 -1977.5859375 660.9768676757813 -1979.527954101563 641.8511962890625 C -1981.500122070313 622.4423828125 -1982.5 602.64208984375 -1982.5 582.9999389648438 C -1982.5 563.3576049804688 -1981.500122070313 543.5573120117188 -1979.528076171875 524.1489868164063 C -1977.586181640625 505.0231628417969 -1974.652099609375 485.7982482910156 -1970.8076171875 467.0079345703125 C -1967.01416015625 448.4708557128906 -1962.243408203125 429.9165649414063 -1956.627685546875 411.8605651855469 C -1951.075317382813 394.0090026855469 -1944.56494140625 376.2213134765625 -1937.276733398438 358.9916381835938 C -1922.855712890625 324.8945617675781 -1905.004028320313 292.0053100585938 -1884.217529296875 261.2368469238281 C -1863.630249023438 230.7639465332031 -1839.985473632813 202.1060943603516 -1813.940307617188 176.0594787597656 C -1787.890258789063 150.0108642578125 -1759.232299804688 126.3662490844727 -1728.762939453125 105.7824020385742 C -1698.002075195313 85.000244140625 -1665.112915039063 67.14855194091797 -1631.008422851563 52.72317123413086 C -1613.778564453125 45.43486022949219 -1595.990844726563 38.92424774169922 -1578.139404296875 33.37194061279297 C -1560.084228515625 27.7567081451416 -1541.52978515625 22.98593902587891 -1522.991455078125 19.19224739074707 C -1504.20703125 15.3484001159668 -1484.982299804688 12.41440010070801 -1465.851196289063 10.47163105010986 C -1446.430297851563 8.499785423278809 -1426.629760742188 7.50009298324585 -1406.999755859375 7.50009298324585 C -1387.369873046875 7.50009298324585 -1367.5693359375 8.499785423278809 -1348.1484375 10.47163105010986 C -1329.016723632813 12.41440010070801 -1309.7919921875 15.34855461120605 -1291.00830078125 19.19224739074707 C -1272.468383789063 22.98624610900879 -1253.913940429688 27.75686264038086 -1235.860229492188 33.37194061279297 C -1218.01025390625 38.92409133911133 -1200.222534179688 45.43470764160156 -1182.991333007813 52.72317123413086 C -1148.887329101563 67.14824676513672 -1115.998168945313 84.99993896484375 -1085.237182617188 105.7822494506836 C -1054.763305664063 126.3693237304688 -1026.10546875 150.0139465332031 -1000.059326171875 176.0596313476563 C -974.0118408203125 202.1085510253906 -950.3671875 230.7664031982422 -929.7825927734375 261.2368469238281 C -908.994873046875 292.0068664550781 -891.14306640625 324.896240234375 -876.7230224609375 358.9913330078125 C -869.4359741210938 376.2191772460938 -862.9253540039063 394.0070190429688 -857.3721313476563 411.8607177734375 C -851.7567138671875 429.9161071777344 -846.9859619140625 448.4703979492188 -843.1924438476563 467.0082397460938 C -839.3484497070313 485.7925415039063 -836.4142456054688 505.017333984375 -834.4716796875 524.1485595703125 C -832.4998168945313 543.5693359375 -831.5001220703125 563.3698120117188 -831.5001220703125 582.9999389648438 C -831.5001220703125 602.6300659179688 -832.4998168945313 622.4305419921875 -834.4716796875 641.851318359375 C -836.4142456054688 660.9827270507813 -839.3484497070313 680.2074584960938 -843.1924438476563 698.991455078125 C -846.9861450195313 717.5296020507813 -851.7568969726563 736.0841064453125 -857.3722534179688 754.1394653320313 C -862.9256591796875 771.9934692382813 -869.436279296875 789.7813110351563 -876.7230224609375 807.0084228515625 C -891.14306640625 841.1033325195313 -908.9947509765625 873.9927368164063 -929.7824096679688 904.7628784179688 C -950.3671875 935.2333374023438 -974.0118408203125 963.8911743164063 -1000.059509277344 989.9402465820313 C -1026.10546875 1015.985961914063 -1054.763305664063 1039.630615234375 -1085.237060546875 1060.21728515625 C -1115.997314453125 1080.99951171875 -1148.886596679688 1098.851196289063 -1182.991333007813 1113.276733398438 C -1200.221923828125 1120.564819335938 -1218.009643554688 1127.07568359375 -1235.860473632813 1132.6279296875 C -1253.916259765625 1138.243530273438 -1272.470703125 1143.014282226563 -1291.00830078125 1146.8076171875 C -1309.791870117188 1150.651489257813 -1329.0166015625 1153.585571289063 -1348.148559570313 1155.528198242188 C -1367.571655273438 1157.500122070313 -1387.3720703125 1158.5 -1406.999755859375 1158.5 Z M -1223.197143554688 670.2728881835938 C -1303.345092773438 670.2728881835938 -1368.549926757813 735.477783203125 -1368.549926757813 815.62548828125 C -1368.549926757813 895.773193359375 -1303.345092773438 960.9780883789063 -1223.197143554688 960.9780883789063 C -1143.049560546875 960.9780883789063 -1077.844604492188 895.773193359375 -1077.844604492188 815.62548828125 C -1077.844604492188 735.477783203125 -1143.049560546875 670.2728881835938 -1223.197143554688 670.2728881835938 Z M -1590.802734375 670.2728881835938 C -1670.950439453125 670.2728881835938 -1736.155151367188 735.477783203125 -1736.155151367188 815.62548828125 C -1736.155151367188 895.773193359375 -1670.950439453125 960.9780883789063 -1590.802734375 960.9780883789063 C -1510.655639648438 960.9780883789063 -1445.451293945313 895.773193359375 -1445.451293945313 815.62548828125 C -1445.451293945313 735.477783203125 -1510.655639648438 670.2728881835938 -1590.802734375 670.2728881835938 Z M -1406.999755859375 529.5498046875 C -1436.473022460938 529.5498046875 -1460.451293945313 553.5274658203125 -1460.451293945313 582.9999389648438 C -1460.451293945313 612.47314453125 -1436.473022460938 636.4512939453125 -1406.999755859375 636.4512939453125 C -1377.52685546875 636.4512939453125 -1353.548950195313 612.47314453125 -1353.548950195313 582.9999389648438 C -1353.548950195313 553.5274658203125 -1377.52685546875 529.5498046875 -1406.999755859375 529.5498046875 Z M -1131.296020507813 345.7459411621094 C -1211.442993164063 345.7459411621094 -1276.6474609375 410.9508666992188 -1276.6474609375 491.0985412597656 C -1276.6474609375 571.24560546875 -1211.442993164063 636.449951171875 -1131.296020507813 636.449951171875 C -1051.148315429688 636.449951171875 -985.943359375 571.24560546875 -985.943359375 491.0985412597656 C -985.943359375 410.9508666992188 -1051.148315429688 345.7459411621094 -1131.296020507813 345.7459411621094 Z M -1682.7041015625 345.7459411621094 C -1762.851684570313 345.7459411621094 -1828.056396484375 410.9508666992188 -1828.056396484375 491.0985412597656 C -1828.056396484375 571.24560546875 -1762.851684570313 636.449951171875 -1682.7041015625 636.449951171875 C -1602.557006835938 636.449951171875 -1537.3525390625 571.24560546875 -1537.3525390625 491.0985412597656 C -1537.3525390625 410.9508666992188 -1602.557006835938 345.7459411621094 -1682.7041015625 345.7459411621094 Z M -1406.999755859375 137.5317840576172 C -1487.1474609375 137.5317840576172 -1552.352416992188 202.7367095947266 -1552.352416992188 282.8843994140625 C -1552.352416992188 363.0314636230469 -1487.1474609375 428.2357788085938 -1406.999755859375 428.2357788085938 C -1326.852172851563 428.2357788085938 -1261.647338867188 363.0314636230469 -1261.647338867188 282.8843994140625 C -1261.647338867188 202.7367095947266 -1326.852172851563 137.5317840576172 -1406.999755859375 137.5317840576172 Z" stroke="none"/>
      <path d="M -1407 1151 C -1387.623291015625 1151 -1368.07763671875 1150.013061523438 -1348.906127929688 1148.066650390625 C -1330.023681640625 1146.149291992188 -1311.049926757813 1143.253662109375 -1292.511840820313 1139.459716796875 C -1274.217407226563 1135.71630859375 -1255.906616210938 1131.00830078125 -1238.088012695313 1125.46630859375 C -1220.4716796875 1119.986938476563 -1202.91748046875 1113.561767578125 -1185.9130859375 1106.369262695313 C -1152.25390625 1092.13232421875 -1119.79443359375 1074.513549804688 -1089.435424804688 1054.002563476563 C -1059.357788085938 1033.683471679688 -1031.071655273438 1010.345458984375 -1005.362976074219 984.6372680664063 C -979.6524658203125 958.92529296875 -956.314453125 930.6390991210938 -935.9971313476563 900.564453125 C -915.4807739257813 870.1959228515625 -897.8621215820313 837.7362670898438 -883.6304321289063 804.0866088867188 C -876.4392700195313 787.0856323242188 -870.0142822265625 769.5314331054688 -864.5338134765625 751.9119262695313 C -858.9921264648438 734.0939331054688 -854.283935546875 715.7830810546875 -850.5401000976563 697.4876098632813 C -846.7464599609375 678.950439453125 -843.8506469726563 659.9767456054688 -841.9332885742188 641.0939331054688 C -839.9869384765625 621.923095703125 -839.0001220703125 602.37744140625 -839.0001220703125 582.9999389648438 C -839.0001220703125 563.6222534179688 -839.9869384765625 544.0765991210938 -841.9332885742188 524.90625 C -843.8507690429688 506.02294921875 -846.7464599609375 487.0491027832031 -850.540283203125 468.5117797851563 C -854.2841186523438 450.2167663574219 -858.9921264648438 431.90576171875 -864.5338134765625 414.0881042480469 C -870.0137939453125 396.4694519042969 -876.43896484375 378.915283203125 -883.630615234375 361.9127807617188 C -897.8623046875 328.2630920410156 -915.48095703125 295.8036193847656 -935.997314453125 265.4352722167969 C -956.314453125 235.3607788085938 -979.6524658203125 207.0746002197266 -1005.362609863281 181.3629455566406 C -1031.070922851563 155.6549377441406 -1059.357177734375 132.3169403076172 -1089.435913085938 111.9967727661133 C -1119.795776367188 91.48543548583984 -1152.255493164063 73.86693572998047 -1185.9130859375 59.6306037902832 C -1202.916748046875 52.43827056884766 -1220.470947265625 46.01310729980469 -1238.087768554688 40.53360748291016 C -1255.904174804688 34.99243927001953 -1274.214965820313 30.28427314758301 -1292.511962890625 26.54010581970215 C -1311.05029296875 22.74643898010254 -1330.024169921875 19.85060501098633 -1348.906005859375 17.93327140808105 C -1368.076171875 15.98677253723145 -1387.621826171875 14.99993896484375 -1407 14.99993896484375 C -1426.377807617188 14.99993896484375 -1445.923461914063 15.98677253723145 -1465.093505859375 17.93310546875 C -1483.9765625 19.85077285766602 -1502.950439453125 22.74660491943359 -1521.48779296875 26.54010581970215 C -1539.783325195313 30.28393936157227 -1558.09423828125 34.99210739135742 -1575.911987304688 40.53360748291016 C -1593.526977539063 46.01227188110352 -1611.081176757813 52.43743896484375 -1628.086669921875 59.6306037902832 C -1661.745239257813 73.86743927001953 -1694.204956054688 91.48593902587891 -1724.564575195313 111.9971084594727 C -1754.638916015625 132.3141021728516 -1782.925170898438 155.6522674560547 -1808.636840820313 181.3626098632813 C -1834.344848632813 207.07177734375 -1857.682739257813 235.3579406738281 -1878.002807617188 265.4354248046875 C -1898.51806640625 295.8024291992188 -1916.136840820313 328.2621154785156 -1930.369262695313 361.9132690429688 C -1937.561401367188 378.9164428710938 -1943.986572265625 396.4706115722656 -1949.466064453125 414.0876159667969 C -1955.00830078125 431.9082641601563 -1959.716674804688 450.2192687988281 -1963.4599609375 468.5112609863281 C -1967.25390625 487.0557861328125 -1970.149780273438 506.02978515625 -1972.066650390625 524.9071044921875 C -1974.012939453125 544.0656127929688 -1975 563.6109619140625 -1975 582.9999389648438 C -1975 602.3887939453125 -1974.012939453125 621.93408203125 -1972.06640625 641.0936279296875 C -1970.149658203125 659.9699096679688 -1967.25390625 678.9439086914063 -1963.4599609375 697.48779296875 C -1959.716674804688 715.7804565429688 -1955.00830078125 734.0914306640625 -1949.46630859375 751.9117431640625 C -1943.986450195313 769.52978515625 -1937.561279296875 787.0839233398438 -1930.369140625 804.0870971679688 C -1916.136596679688 837.7380981445313 -1898.517944335938 870.19775390625 -1878.002807617188 900.564453125 C -1857.682739257813 930.6419677734375 -1834.344848632813 958.9281005859375 -1808.637329101563 984.6367797851563 C -1782.924438476563 1010.348083496094 -1754.638305664063 1033.686157226563 -1724.564086914063 1054.0029296875 C -1694.205078125 1074.513549804688 -1661.745483398438 1092.13232421875 -1628.08642578125 1106.369384765625 C -1611.083251953125 1113.561645507813 -1593.529296875 1119.98681640625 -1575.912109375 1125.466064453125 C -1558.092651367188 1131.008056640625 -1539.78173828125 1135.71630859375 -1521.487670898438 1139.459716796875 C -1502.949951171875 1143.25341796875 -1483.97607421875 1146.149291992188 -1465.09375 1148.066650390625 C -1445.922607421875 1150.013061523438 -1426.377075195313 1151 -1407 1151 M -1223.197143554688 662.7727661132813 C -1138.913940429688 662.7727661132813 -1070.344604492188 731.34228515625 -1070.344604492188 815.6254272460938 C -1070.344604492188 899.9086303710938 -1138.913940429688 968.4780883789063 -1223.197143554688 968.4780883789063 C -1307.48046875 968.4780883789063 -1376.049926757813 899.9086303710938 -1376.049926757813 815.6254272460938 C -1376.049926757813 731.34228515625 -1307.48046875 662.7727661132813 -1223.197143554688 662.7727661132813 M -1590.802734375 662.7727661132813 C -1506.520141601563 662.7727661132813 -1437.951293945313 731.34228515625 -1437.951293945313 815.6254272460938 C -1437.951293945313 899.9086303710938 -1506.520141601563 968.4780883789063 -1590.802734375 968.4780883789063 C -1675.085815429688 968.4780883789063 -1743.655151367188 899.9086303710938 -1743.655151367188 815.6254272460938 C -1743.655151367188 731.34228515625 -1675.085815429688 662.7727661132813 -1590.802734375 662.7727661132813 M -1407 522.0497436523438 C -1373.391479492188 522.0497436523438 -1346.048950195313 549.3919677734375 -1346.048950195313 582.9999389648438 C -1346.048950195313 616.6085815429688 -1373.391479492188 643.9512939453125 -1407 643.9512939453125 C -1440.608642578125 643.9512939453125 -1467.951293945313 616.6085815429688 -1467.951293945313 582.9999389648438 C -1467.951293945313 549.3919677734375 -1440.608642578125 522.0497436523438 -1407 522.0497436523438 M -1131.2958984375 338.2459411621094 C -1047.012817382813 338.2459411621094 -978.4432983398438 406.8154296875 -978.4432983398438 491.0986022949219 C -978.4432983398438 575.381103515625 -1047.012817382813 643.949951171875 -1131.2958984375 643.949951171875 C -1215.57861328125 643.949951171875 -1284.147583007813 575.381103515625 -1284.147583007813 491.0986022949219 C -1284.147583007813 406.8154296875 -1215.57861328125 338.2459411621094 -1131.2958984375 338.2459411621094 M -1682.7041015625 338.2459411621094 C -1598.421508789063 338.2459411621094 -1529.852661132813 406.8154296875 -1529.852661132813 491.0986022949219 C -1529.852661132813 575.381103515625 -1598.421508789063 643.949951171875 -1682.7041015625 643.949951171875 C -1766.987182617188 643.949951171875 -1835.556396484375 575.381103515625 -1835.556396484375 491.0986022949219 C -1835.556396484375 406.8154296875 -1766.987182617188 338.2459411621094 -1682.7041015625 338.2459411621094 M -1407 130.0317687988281 C -1322.716796875 130.0317687988281 -1254.147338867188 198.6012725830078 -1254.147338867188 282.8844299316406 C -1254.147338867188 367.1669311523438 -1322.716796875 435.7357788085938 -1407 435.7357788085938 C -1491.283081054688 435.7357788085938 -1559.852416992188 367.1669311523438 -1559.852416992188 282.8844299316406 C -1559.852416992188 198.6012725830078 -1491.283081054688 130.0317687988281 -1407 130.0317687988281 M -1407 1166 C -1426.880493164063 1166 -1446.935913085938 1164.9873046875 -1466.609008789063 1162.989990234375 C -1485.989624023438 1161.02197265625 -1505.46533203125 1158.049560546875 -1524.494995117188 1154.1552734375 C -1543.276000976563 1150.312133789063 -1562.073608398438 1145.478759765625 -1580.366821289063 1139.789428710938 C -1598.45263671875 1134.164306640625 -1616.473754882813 1127.568237304688 -1633.93017578125 1120.184326171875 C -1668.480102539063 1105.5703125 -1701.799072265625 1087.485595703125 -1732.96142578125 1066.43212890625 C -1763.826904296875 1045.580810546875 -1792.8564453125 1021.629272460938 -1819.24365234375 995.2435913085938 C -1845.625732421875 968.8602905273438 -1869.577270507813 939.8307495117188 -1890.43212890625 908.96142578125 C -1911.490234375 877.7910766601563 -1929.574951171875 844.471923828125 -1944.184326171875 809.9301147460938 C -1951.567626953125 792.4749145507813 -1958.163818359375 774.4534301757813 -1963.789428710938 756.3667602539063 C -1969.478759765625 738.0729370117188 -1974.312255859375 719.2750854492188 -1978.155395507813 700.4951171875 C -1982.04931640625 681.4632568359375 -1985.02197265625 661.9876098632813 -1986.98974609375 642.6089477539063 C -1988.987182617188 622.9490966796875 -1990 602.8939208984375 -1990 582.9999389648438 C -1990 563.10595703125 -1988.987182617188 543.0505981445313 -1986.98974609375 523.3909301757813 C -1985.02197265625 504.0121154785156 -1982.04931640625 484.5364379882813 -1978.155395507813 465.5046081542969 C -1974.312255859375 446.7247619628906 -1969.478759765625 427.9269409179688 -1963.789428710938 409.6331176757813 C -1958.163818359375 391.5462646484375 -1951.567626953125 373.5249328613281 -1944.184326171875 356.0697631835938 C -1929.574951171875 321.5277709960938 -1911.490234375 288.2087707519531 -1890.43212890625 257.0384521484375 C -1869.577270507813 226.1691131591797 -1845.625732421875 197.1396026611328 -1819.24365234375 170.7562713623047 C -1792.8564453125 144.3704376220703 -1763.826904296875 120.4191055297852 -1732.96142578125 99.56760406494141 C -1701.799072265625 78.51410675048828 -1668.480102539063 60.42943954467773 -1633.93017578125 45.81560516357422 C -1616.472900390625 38.43143844604492 -1598.451782226563 31.83527183532715 -1580.366821289063 26.21043968200684 C -1562.074584960938 20.52127265930176 -1543.276611328125 15.68793869018555 -1524.494995117188 11.84460544586182 C -1505.4658203125 7.950438976287842 -1485.990112304688 4.978105545043945 -1466.609008789063 3.009938955307007 C -1446.936767578125 1.012605667114258 -1426.88134765625 -6.103515625e-05 -1407 -6.103515625e-05 C -1387.118286132813 -6.103515625e-05 -1367.062744140625 1.012605667114258 -1347.390747070313 3.009938955307007 C -1328.01123046875 4.977939128875732 -1308.535278320313 7.950272083282471 -1289.504760742188 11.84460544586182 C -1270.7216796875 15.68827247619629 -1251.923583984375 20.5216064453125 -1233.632934570313 26.21043968200684 C -1215.54541015625 31.83627319335938 -1197.5244140625 38.43243789672852 -1180.069580078125 45.81560516357422 C -1145.519775390625 60.42927169799805 -1112.200927734375 78.51410675048828 -1081.03857421875 99.56760406494141 C -1050.169311523438 120.4217758178711 -1021.139770507813 144.3729400634766 -994.756103515625 170.7562713623047 C -968.3704833984375 197.1434326171875 -944.4193115234375 226.1729431152344 -923.5678100585938 257.0384521484375 C -902.5090942382813 288.2094421386719 -884.42431640625 321.5284423828125 -869.8154296875 356.0697631835938 C -862.4332885742188 373.5224304199219 -855.8370971679688 391.5436096191406 -850.2106323242188 409.6331176757813 C -844.5209350585938 427.9269409179688 -839.6878051757813 446.7247619628906 -835.8447875976563 465.5046081542969 C -831.9506225585938 484.5325927734375 -828.9781494140625 504.0084533691406 -827.0099487304688 523.3909301757813 C -825.0128173828125 543.062744140625 -824.0001220703125 563.1182861328125 -824.0001220703125 582.9999389648438 C -824.0001220703125 602.881591796875 -825.0128173828125 622.9369506835938 -827.0099487304688 642.6089477539063 C -828.9781494140625 661.991455078125 -831.9506225585938 681.4671020507813 -835.8447875976563 700.4951171875 C -839.6878051757813 719.2750854492188 -844.5209350585938 738.0729370117188 -850.2106323242188 756.3667602539063 C -855.8370971679688 774.4561157226563 -862.4332885742188 792.4776000976563 -869.8154296875 809.9301147460938 C -884.42431640625 844.471435546875 -902.5090942382813 877.790283203125 -923.5678100585938 908.96142578125 C -944.4193115234375 939.8269653320313 -968.3704833984375 968.8564453125 -994.756103515625 995.2435913085938 C -1021.139770507813 1021.626770019531 -1050.169311523438 1045.578125 -1081.03857421875 1066.43212890625 C -1112.200927734375 1087.485961914063 -1145.519775390625 1105.570434570313 -1180.069580078125 1120.184326171875 C -1197.523681640625 1127.56689453125 -1215.544677734375 1134.163330078125 -1233.632934570313 1139.789428710938 C -1251.924926757813 1145.478637695313 -1270.72314453125 1150.312133789063 -1289.504760742188 1154.1552734375 C -1308.534423828125 1158.049560546875 -1328.010009765625 1161.02197265625 -1347.390747070313 1162.989990234375 C -1367.064331054688 1164.9873046875 -1387.119262695313 1166 -1407 1166 Z M -1223.197143554688 677.7727661132813 C -1299.20947265625 677.7727661132813 -1361.049926757813 739.6134643554688 -1361.049926757813 815.6254272460938 C -1361.049926757813 891.6377563476563 -1299.20947265625 953.4780883789063 -1223.197143554688 953.4780883789063 C -1147.185180664063 953.4780883789063 -1085.344604492188 891.6377563476563 -1085.344604492188 815.6254272460938 C -1085.344604492188 739.6134643554688 -1147.185180664063 677.7727661132813 -1223.197143554688 677.7727661132813 Z M -1590.802734375 677.7727661132813 C -1666.814575195313 677.7727661132813 -1728.655151367188 739.6134643554688 -1728.655151367188 815.6254272460938 C -1728.655151367188 891.6377563476563 -1666.814575195313 953.4780883789063 -1590.802734375 953.4780883789063 C -1514.791259765625 953.4780883789063 -1452.951293945313 891.6377563476563 -1452.951293945313 815.6254272460938 C -1452.951293945313 739.6134643554688 -1514.791259765625 677.7727661132813 -1590.802734375 677.7727661132813 Z M -1407 537.0497436523438 C -1432.337646484375 537.0497436523438 -1452.951293945313 557.6629638671875 -1452.951293945313 582.9999389648438 C -1452.951293945313 608.3375854492188 -1432.337646484375 628.9512939453125 -1407 628.9512939453125 C -1381.662231445313 628.9512939453125 -1361.048950195313 608.3375854492188 -1361.048950195313 582.9999389648438 C -1361.048950195313 557.6629638671875 -1381.662231445313 537.0497436523438 -1407 537.0497436523438 Z M -1131.2958984375 353.2459411621094 C -1207.3076171875 353.2459411621094 -1269.147583007813 415.08642578125 -1269.147583007813 491.0986022949219 C -1269.147583007813 567.1099243164063 -1207.3076171875 628.949951171875 -1131.2958984375 628.949951171875 C -1055.283569335938 628.949951171875 -993.4432983398438 567.1099243164063 -993.4432983398438 491.0986022949219 C -993.4432983398438 415.08642578125 -1055.283569335938 353.2459411621094 -1131.2958984375 353.2459411621094 Z M -1682.7041015625 353.2459411621094 C -1758.716064453125 353.2459411621094 -1820.556396484375 415.08642578125 -1820.556396484375 491.0986022949219 C -1820.556396484375 567.1099243164063 -1758.716064453125 628.949951171875 -1682.7041015625 628.949951171875 C -1606.692626953125 628.949951171875 -1544.852661132813 567.1099243164063 -1544.852661132813 491.0986022949219 C -1544.852661132813 415.08642578125 -1606.692626953125 353.2459411621094 -1682.7041015625 353.2459411621094 Z M -1407 145.0317687988281 C -1483.011962890625 145.0317687988281 -1544.852416992188 206.8722686767578 -1544.852416992188 282.8844299316406 C -1544.852416992188 358.8957824707031 -1483.011962890625 420.7357788085938 -1407 420.7357788085938 C -1330.987670898438 420.7357788085938 -1269.147338867188 358.8957824707031 -1269.147338867188 282.8844299316406 C -1269.147338867188 206.8722686767578 -1330.987670898438 145.0317687988281 -1407 145.0317687988281 Z" stroke="none" fill="#757575"/>
    </g>
  </g>
</svg>
