<svg xmlns="http://www.w3.org/2000/svg" width="1326.847" height="1175.24" viewBox="0 0 1326.847 1175.24">
  <path id="Subtraction_12" data-name="Subtraction 12" d="M-487,273H-1990V0H-487V273Zm-31-47v34h30V226Zm-50,0v34h30V226Zm-50,0v34h30V226Zm-50,0v34h30V226Zm-50,0v34h30V226Zm-50,0v34h30V226Zm-50,0v34h30V226Zm-50,0v34h30V226Zm-50,0v34h30V226Zm-50,0v34h30V226Zm-50,0v34h30V226Zm-50,0v34h30V226Zm-50,0v34h30V226Zm-50,0v34h30V226Zm-50,0v34h30V226Zm-50,0v34h30V226Zm-50,0v34h30V226Zm-50,0v34h30V226Zm-50,0v34h30V226Zm-50,0v34h30V226h-30Zm-50,0v34h30V226Zm-50,0v34h30V226Zm-50,0v34h30V226Zm-50,0v34h30V226Zm-50,0v34h30V226Zm-50,0v34h30V226Zm-50,0v34h30V226Zm-50,0v34h30V226Zm-50,0v34h30V226Zm-50,0v34h30V226ZM-780,62V212h248V62Zm-297,0V212h248V62Zm-297,0V212h248V62Zm-297,0V212h248V62Zm-297,0V212h248V62ZM-518,14V48h30V14Zm-50,0V48h30V14Zm-50,0V48h30V14Zm-50,0V48h30V14Zm-50,0V48h30V14Zm-50,0V48h30V14Zm-50,0V48h30V14Zm-50,0V48h30V14Zm-50,0V48h30V14Zm-50,0V48h30V14Zm-50,0V48h30V14Zm-50,0V48h30V14Zm-50,0V48h30V14Zm-50,0V48h30V14Zm-50,0V48h30V14Zm-50,0V48h30V14Zm-50,0V48h30V14Zm-50,0V48h30V14Zm-50,0V48h30V14Zm-50,0V48h30V14h-30Zm-50,0V48h30V14Zm-50,0V48h30V14Zm-50,0V48h30V14Zm-50,0V48h30V14Zm-50,0V48h30V14Zm-50,0V48h30V14Zm-50,0V48h30V14Zm-50,0V48h30V14Zm-50,0V48h30V14Zm-50,0V48h30V14Z" transform="translate(1699.91 1279.147) rotate(40)" fill="rgba(0,0,0,0.22)"/>
</svg>
